<svg width="1024" height="1024" viewBox="0 0 1024 1024" fill="none" xmlns="http://www.w3.org/2000/svg">
<path d="M60.6089 497.262C60.2438 496.801 59.8855 496.345 59.5341 495.894L60.6089 497.262C98.9936 545.79 213.26 654.611 388.789 657.456C565.988 660.328 735.605 559.721 798.263 509.058C824.604 489.112 889.736 450.417 939.544 455.204C989.351 459.991 1002.6 465.177 1003 467.172C983.843 562.115 881.355 752 624.656 752C367.956 752 157.113 610.86 91.2316 536.249L60.6089 497.262Z" fill="white"/>
<path d="M248.526 428.83C95.2453 429.787 32.9751 331.859 21 282.775C44.9501 497.308 201.025 586.856 276.069 604.814C333.549 619.579 479.645 619.419 604.185 500.66C759.861 352.211 816.144 355.802 877.216 348.619C926.075 342.873 980.601 374.159 1001.76 390.52C983.395 351.013 910.747 272 767.046 272C587.42 272 440.127 427.632 248.526 428.83Z" fill="#6366F1"/>
</svg>
