<svg width="1024" height="1024" viewBox="0 0 1024 1024" fill="none" xmlns="http://www.w3.org/2000/svg">
<path d="M60.0754 497.436C59.7101 496.974 59.3516 496.518 59 496.068L60.0754 497.436C98.4819 545.93 212.813 654.677 388.442 657.52C565.741 660.391 735.453 559.852 798.147 509.223C824.503 489.291 889.672 450.622 939.508 455.406C989.343 460.19 1002.6 465.372 1003 467.365C983.832 562.244 881.286 752 624.442 752C367.597 752 156.634 610.956 90.7154 536.395L60.0754 497.436Z" fill="#374151"/>
<path d="M248.582 428.607C95.2637 429.563 32.978 331.774 21 282.759C44.956 496.988 201.07 586.41 276.132 604.342C333.626 619.086 479.758 618.926 604.33 500.335C760.044 352.097 816.341 355.683 877.429 348.51C926.299 342.772 980.839 374.014 1002 390.352C983.634 350.901 910.967 272 767.231 272C587.56 272 440.231 427.412 248.582 428.607Z" fill="#6366F1"/>
</svg>
